.
..............................Site Info...........................

 -   http://www.scenetime.com  *_*    

Scenetime .Always on time . friendly online private torrent community ..

     We care to share . Join us on  http://www.scenetime.com 

    Be the first to get new release at  http://www.scenetime.com

        Seed back for speed


...................................NFO:.................................................REC.3.2012.SUBBED.DVDRIP.XVID.AC3-BITMAP
 
http://www.imdb.com/title/tt1649444/

Format                                   : AVI
Format/Info                              : Audio Video Interleave
File size                                : 1.17 GiB
Duration                                 : 1h 17mn
Overall bit rate                         : 2 178 Kbps
Writing application                      : VirtualDubMod 1.5.4.1 (build 2178/release)
Writing library                          : VirtualDubMod build 2178/release

Video
ID                                       : 0
Format                                   : MPEG-4 Visual
Format profile                           : Advanced Simple@L5
Format settings, BVOP                    : 1
Format settings, QPel                    : No
Format settings, GMC                     : No warppoints
Format settings, Matrix                  : Custom
Codec ID                                 : XVID
Codec ID/Hint                            : XviD
Duration                                 : 1h 17mn
Bit rate                                 : 1 979 Kbps
Width                                    : 656 pixels
Height                                   : 368 pixels
Display aspect ratio                     : 16:9
Frame rate                               : 25.000 fps
Color space                              : YUV
Chroma subsampling                       : 4:2:0
Bit depth                                : 8 bits
Scan type                                : Progressive
Compression mode                         : Lossy
Bits/(Pixel*Frame)                       : 0.328
Stream size                              : 1.07 GiB (91%)
Writing library                          : XviD 64

Audio
ID                                       : 1
Format                                   : AC-3
Format/Info                              : Audio Coding 3
Mode extension                           : CM (complete main)
Format settings, Endianness              : Big
Codec ID                                 : 2000
Duration                                 : 1h 17mn
Bit rate mode                            : Constant
Bit rate                                 : 192 Kbps
Channel(s)                               : 2 channels
Channel positions                        : Front: L R
Sampling rate                            : 48.0 KHz
Bit depth                                : 16 bits
Compression mode                         : Lossy
Stream size                              : 106 MiB (9%)
Alignment                                : Split accross interleaves
Interleave, duration                     : 96 ms (2.40 video frames)
Interleave, preload duration             : 96 ms
Language                                 : Spanish
HARDCODED ENGLISH SUBS

SCREENS:

[IMG]http://i.imgur.com/RTSD6.png[/IMG]
[IMG]http://i.imgur.com/YRvHb.png[/IMG]
[IMG]http://i.imgur.com/64Yzh.png[/IMG]